<svg viewBox="0 0 94 95" fill="none" xmlns="http://www.w3.org/2000/svg">
    <path
        d="M5.04396 60.8182C5.04396 64.4272 7.98608 67.3529 11.6154 67.3529C13.9566 67.3529 16.0119 66.1354 17.1758 64.3024M5.04396 60.8182C5.04396 57.2091 7.98608 54.2834 11.6154 54.2834M5.04396 60.8182V42.2193M11.6154 54.2834C15.2447 54.2834 18.1868 57.2091 18.1868 60.8182C18.1868 62.0991 17.8162 63.2939 17.1758 64.3024M11.6154 54.2834H58.1209M24.2527 85.4492C28.1612 85.4492 31.3297 82.2984 31.3297 78.4118C31.3297 74.5251 28.1612 71.3743 24.2527 71.3743M24.2527 85.4492C20.3443 85.4492 17.1758 82.2984 17.1758 78.4118M24.2527 85.4492H86.9341M17.1758 78.4118C17.1758 74.5251 20.3443 71.3743 24.2527 71.3743M17.1758 78.4118V64.3024M24.2527 71.3743H80.3626M16.1648 90.4759C18.3983 90.4759 20.2088 88.6755 20.2088 86.4545C20.2088 84.2336 18.3983 82.4332 16.1648 82.4332C13.9314 82.4332 12.1209 84.2336 12.1209 86.4545M16.1648 90.4759C13.9314 90.4759 12.1209 88.6755 12.1209 86.4545M16.1648 90.4759H81.8791M12.1209 86.4545V95M86.9341 85.4492C90.2842 85.4492 93 82.7485 93 79.4171V77.4064C93 74.075 90.2842 71.3743 86.9341 71.3743H80.3626M86.9341 85.4492V86.4545C86.9341 88.6755 85.1235 90.4759 82.8901 90.4759H81.8791M80.3626 71.3743V61.3209C80.3626 57.4342 77.1942 54.2834 73.2857 54.2834H58.1209M81.8791 90.4759V95M58.1209 48.239V54.2834M4.03297 8.03743C5.70803 8.03743 7.06593 9.38776 7.06593 11.0535V39.2032C7.06593 40.8689 5.70803 42.2193 4.03297 42.2193M4.03297 8.03743C2.35791 8.03743 1 9.38776 1 11.0535V39.2032C1 40.8689 2.35791 42.2193 4.03297 42.2193M4.03297 8.03743H5.50679M4.03297 42.2193H5.88519M15.1538 48.2513H57.6154C63.1989 48.2513 67.7253 43.7502 67.7253 38.1979V11.0535C67.7253 5.50109 63.1989 1 57.6154 1H15.1538M15.1538 48.2513C20.7374 48.2513 25.2637 43.7502 25.2637 38.1979V11.0535C25.2637 5.50109 20.7374 1 15.1538 1M15.1538 48.2513C11.0081 48.2513 7.44526 45.77 5.88519 42.2193M15.1538 1C10.627 1 6.79506 3.95863 5.50679 8.03743M67.2624 8.03743H70.7582C72.9917 8.03743 74.8022 9.83787 74.8022 12.0588V38.1979C74.8022 40.4188 72.9917 42.2193 70.7582 42.2193H66.884M5.50679 8.03743H14.1429C16.3763 8.03743 18.1868 9.83787 18.1868 12.0588V38.1979C18.1868 40.4188 16.3763 42.2193 14.1429 42.2193H5.88519M14.1429 60.8182C14.1429 62.2063 13.0113 63.3316 11.6154 63.3316C10.2195 63.3316 9.08791 62.2063 9.08791 60.8182C9.08791 59.4301 10.2195 58.3048 11.6154 58.3048C13.0113 58.3048 14.1429 59.4301 14.1429 60.8182ZM27.2857 78.4118C27.2857 80.0775 25.9278 81.4278 24.2527 81.4278C22.5777 81.4278 21.2198 80.0775 21.2198 78.4118C21.2198 76.7461 22.5777 75.3957 24.2527 75.3957C25.9278 75.3957 27.2857 76.7461 27.2857 78.4118Z"
        stroke="#8E8E8F" />
</svg>