<svg width="161" height="78" viewBox="0 0 161 78" fill="none" xmlns="http://www.w3.org/2000/svg">
<path d="M72.7144 77.4718H159.943V5.73291H72.7144V77.4718Z" stroke="#8E8E8F"/>
<path d="M1 77.4716H72.8372V18.6064H1V77.4716Z" stroke="#8E8E8F"/>
<path d="M62.58 56.9697H11.2695V77.4718H62.58V56.9697Z" stroke="#8E8E8F"/>
<path d="M106.127 67.2271H85.6006V77.4719H106.127V67.2271Z" stroke="#8E8E8F"/>
<path d="M147.18 67.2271H126.654V77.4719H147.18V67.2271Z" stroke="#8E8E8F"/>
<path d="M31.7962 0.610352H21.5391V18.4836H31.7962V0.610352Z" stroke="#8E8E8F"/>
<path d="M52.3221 0.610352H42.0649V18.4836H52.3221V0.610352Z" stroke="#8E8E8F"/>
<path d="M95.2673 18.2886H83.7471V29.8088H95.2673V18.2886Z" stroke="#8E8E8F" stroke-width="1.15202"/>
<path d="M113.129 18.2886H101.609V29.8088H113.129V18.2886Z" stroke="#8E8E8F" stroke-width="1.15202"/>
<path d="M130.991 18.2886H119.471V29.8088H130.991V18.2886Z" stroke="#8E8E8F" stroke-width="1.15202"/>
<path d="M148.853 18.2886H137.333V29.8088H148.853V18.2886Z" stroke="#8E8E8F" stroke-width="1.15202"/>
<path d="M95.2673 36.7144H83.7471V48.2346H95.2673V36.7144Z" stroke="#8E8E8F" stroke-width="1.15202"/>
<path d="M113.129 36.7144H101.609V48.2346H113.129V36.7144Z" stroke="#8E8E8F" stroke-width="1.15202"/>
<path d="M130.991 36.7144H119.471V48.2346H130.991V36.7144Z" stroke="#8E8E8F" stroke-width="1.15202"/>
<path d="M148.853 36.7144H137.333V48.2346H148.853V36.7144Z" stroke="#8E8E8F" stroke-width="1.15202"/>
<path d="M33.3827 30.1904H10.043V40.0177H33.3827V30.1904Z" stroke="#8E8E8F"/>
<path d="M64.0926 30.1904H40.7529V40.0177H64.0926V30.1904Z" stroke="#8E8E8F"/>
</svg>
