<svg width="104" height="74" viewBox="0 0 104 74" fill="none" xmlns="http://www.w3.org/2000/svg">
<path d="M40.4873 72.9154V73.0002H89.6381M40.4873 37H89.6381" stroke="#8E8E8F"/>
<path d="M76.4551 54.9577C76.4551 45.0577 82.2892 37 89.5634 37C96.8375 37 102.672 45.0577 102.672 54.9577C102.672 64.8578 96.8375 72.9154 89.5634 72.9154C82.2892 72.9154 76.4551 64.8578 76.4551 54.9577Z" stroke="#8E8E8F"/>
<path d="M63.4212 37H14.2704C6.99625 37 1.16211 45.0577 1.16211 54.9577C1.16211 64.8578 6.99625 72.9154 14.2704 72.9154V73.0002H63.4212" stroke="#8E8E8F"/>
<path d="M50.313 54.9577C50.313 45.0577 56.1471 37 63.4213 37C70.6954 37 76.5296 45.0577 76.5296 54.9577C76.5296 64.8578 70.6954 72.9154 63.4213 72.9154C56.1471 72.9154 50.313 64.8578 50.313 54.9577Z" stroke="#8E8E8F"/>
<path d="M14.2705 19.0319C14.2705 28.932 20.1047 36.9897 27.3788 36.9897V37.0744H76.5402M27.3788 1.07422H76.5402" stroke="#8E8E8F"/>
<path d="M63.3472 18.9577C63.3472 9.05767 69.1813 1 76.4555 1C83.7296 1 89.5638 9.05767 89.5638 18.9577C89.5638 28.8578 83.7296 36.9154 76.4555 36.9154C69.1813 36.9154 63.3472 28.8578 63.3472 18.9577Z" stroke="#8E8E8F"/>
<path d="M76.4555 30.446C73.3426 30.446 69.9014 25.5754 69.9014 19.0318C69.9014 12.4883 73.3426 7.61768 76.4555 7.61768C79.5685 7.61768 83.0097 12.4883 83.0097 19.0318C83.0097 25.5754 79.5685 30.446 76.4555 30.446Z" stroke="#8E8E8F"/>
<path d="M76.4555 30.446C73.3426 30.446 69.9014 25.5754 69.9014 19.0318C69.9014 12.4883 73.3426 7.61768 76.4555 7.61768C79.5685 7.61768 83.0097 12.4883 83.0097 19.0318C83.0097 25.5754 79.5685 30.446 76.4555 30.446Z" stroke="#8E8E8F"/>
<path d="M77.9272 20.5773V17.3161C77.9272 16.5267 77.2872 15.8867 76.4978 15.8867C75.7083 15.8867 75.0684 16.5267 75.0684 17.3161V20.5773C75.0684 21.3668 75.7083 22.0067 76.4978 22.0067C77.2872 22.0067 77.9272 21.3668 77.9272 20.5773Z" stroke="#8E8E8F"/>
<path d="M63.3471 66.3718C66.9683 66.3718 69.9013 61.2576 69.9013 54.9576C69.9013 48.6576 66.9683 43.5435 63.3471 43.5435C59.7259 43.5435 56.793 48.6576 56.793 54.9576C56.793 61.2576 59.7259 66.3718 63.3471 66.3718Z" stroke="#8E8E8F"/>
<path d="M63.3471 66.3718C66.9683 66.3718 69.9013 61.2576 69.9013 54.9576C69.9013 48.6576 66.9683 43.5435 63.3471 43.5435C59.7259 43.5435 56.793 48.6576 56.793 54.9576C56.793 61.2576 59.7259 66.3718 63.3471 66.3718Z" stroke="#8E8E8F"/>
<path d="M64.8193 56.5881V53.3269C64.8193 52.5374 64.1793 51.8975 63.3899 51.8975C62.6004 51.8975 61.9604 52.5374 61.9604 53.3269V56.5881C61.9604 57.3775 62.6004 58.0175 63.3899 58.0175C64.1793 58.0175 64.8193 57.3775 64.8193 56.5881Z" stroke="#8E8E8F"/>
<path d="M89.5644 66.3718C93.1856 66.3718 96.1185 61.2576 96.1185 54.9576C96.1185 48.6576 93.1856 43.5435 89.5644 43.5435C85.9432 43.5435 83.0103 48.6576 83.0103 54.9576C83.0103 61.2576 85.9432 66.3718 89.5644 66.3718Z" stroke="#8E8E8F"/>
<path d="M89.5644 66.3718C93.1856 66.3718 96.1185 61.2576 96.1185 54.9576C96.1185 48.6576 93.1856 43.5435 89.5644 43.5435C85.9432 43.5435 83.0103 48.6576 83.0103 54.9576C83.0103 61.2576 85.9432 66.3718 89.5644 66.3718Z" stroke="#8E8E8F"/>
<path d="M91.0356 56.5881V53.3269C91.0356 52.5374 90.3956 51.8975 89.6062 51.8975C88.8167 51.8975 88.1768 52.5374 88.1768 53.3269V56.5881C88.1768 57.3775 88.8167 58.0175 89.6062 58.0175C90.3956 58.0175 91.0356 57.3775 91.0356 56.5881Z" stroke="#8E8E8F"/>
<path d="M7.71582 18.9577C7.71582 9.05767 20.1041 1 27.3783 1H76.5396C69.2655 1 56.8772 9.05767 56.8772 18.9577H7.71582Z" stroke="#8E8E8F"/>
</svg>
