<svg width="95" height="96" viewBox="0 0 95 96" fill="none" xmlns="http://www.w3.org/2000/svg">
<path d="M26.9862 46.251H7.19531V94.5897H60.0961V78.8647" stroke="#8E8E8F"/>
<path d="M13.4396 22.1509H1.14746V87.0672H7.67946" stroke="#8E8E8F"/>
<path d="M36.1192 77.6109C35.6824 77.5421 35.3459 77.4839 35.1098 77.441C35.1183 77.2454 35.1292 76.9862 35.1418 76.6686C35.1726 75.8908 35.2135 74.7624 35.2538 73.3589C35.3344 70.5523 35.4126 66.6449 35.4032 62.2415C35.3845 53.444 35.0163 42.6327 33.6085 34.6669L33.3323 33.1036L32.6628 34.5431L29.0057 42.4065L18.3354 39.4231L23.4754 23.2337C24.7716 20.8306 25.7912 19.7299 26.4465 19.2307C26.7735 18.9817 27.0051 18.8859 27.1318 18.8489C27.1923 18.8313 27.2307 18.8265 27.2464 18.8252L27.3312 18.8366L27.438 18.8027L27.2869 18.3261C27.438 18.8027 27.438 18.8027 27.4382 18.8027L27.4388 18.8025L27.441 18.8018L27.4496 18.7991L27.4831 18.7884L27.6132 18.7467C27.7273 18.71 27.8948 18.6559 28.1092 18.5859C28.5379 18.4458 29.1544 18.2421 29.9062 17.9871C31.4095 17.4771 33.4555 16.7616 35.6247 15.9395C37.7929 15.1179 40.0902 14.1876 42.0941 13.248C43.9399 12.3825 45.5765 11.4912 46.6285 10.6516C52.9826 13.1322 59.3439 13.0542 65.6877 10.6516C66.8227 11.5951 68.5166 12.5394 70.4031 13.4265C72.4351 14.382 74.7329 15.2903 76.8888 16.0757C79.046 16.8615 81.0677 17.5266 82.5498 17.9952C83.2911 18.2295 83.8978 18.4148 84.3195 18.5417C84.5304 18.6051 84.695 18.6539 84.8071 18.6869L84.9352 18.7244L84.9681 18.734L84.9766 18.7365L84.9788 18.7371L84.9794 18.7373C84.9796 18.7373 84.9797 18.7374 85.1183 18.257L84.9797 18.7374L85.0811 18.7666L85.1624 18.7556C85.1629 18.7556 85.1633 18.7556 85.1638 18.7557C85.1808 18.7568 85.2234 18.7613 85.2908 18.78C85.4248 18.8172 85.6649 18.9129 86.0001 19.1613C86.6716 19.6588 87.7099 20.7583 89.0113 23.166L94.2181 39.2772L83.5454 42.3357L79.8217 34.4708L79.1181 32.9848L78.8752 34.6109C77.6527 42.7981 77.6545 53.611 77.9585 62.3549C78.1107 66.7316 78.3389 70.5984 78.5291 73.3712C78.6242 74.7578 78.7098 75.871 78.7717 76.6379C78.7968 76.9495 78.818 77.204 78.8344 77.3964C78.6466 77.4386 78.3919 77.4927 78.0672 77.5555C77.2581 77.712 76.0143 77.9219 74.2879 78.1322C70.8351 78.5529 65.4524 78.9753 57.7579 78.9753C50.0627 78.9753 44.2884 78.5702 40.442 78.1659C38.5188 77.9637 37.0776 77.7618 36.1192 77.6109Z" stroke="#8E8E8F"/>
<path d="M46.8481 10.8955L49.1407 15.3193C50.3273 17.6809 53.2073 19.1555 56.3754 19.1555H56.3638C59.5319 19.1555 62.3428 17.6003 63.5179 15.3193L65.7297 10.8955" stroke="#8E8E8F"/>
<path d="M26.8734 41.4242C27.4821 55.0568 26.8496 68.7846 26.8496 68.7846C26.8496 68.7846 29.6697 69.3935 35.3284 69.8657M20.3521 33.5781L10.249 30.6988L15.4101 13.9715C17.9906 9.04081 19.615 9.25969 19.615 9.25969C19.615 9.25969 34.6603 4.39817 38.4966 1.01123C44.7635 3.59175 51.1112 3.51111 57.3782 1.01123C61.5024 4.84746 76.2598 9.19057 76.2598 9.19057C76.2598 9.19057 77.8726 8.96017 80.5337 13.9023L81.7635 17.8078" stroke="#8E8E8F"/>
<path d="M41.1426 5.19928L41.1426 5.19926L41.1398 5.1937L39.4442 1.92182C45.0317 3.86221 50.682 3.85927 56.2694 1.91301L54.6272 5.19746C53.5553 7.27503 50.9438 8.75812 47.9247 8.75998C44.891 8.75817 42.2207 7.34501 41.1426 5.19928Z" stroke="#8E8E8F"/>
</svg>
