<svg width="1372" height="817" viewBox="0 0 1372 817" fill="none" xmlns="http://www.w3.org/2000/svg">
<g opacity="0.4">
<path d="M1262.84 545.67L1068.69 732.755L969.467 640.632L1163.65 452.128L1054.49 350.099L860.34 538.604L761.118 447.868L955.302 257.944L790.868 99.2215L684.58 0L418.118 257.944L610.882 447.868L513.08 538.604L318.896 350.099L208.349 452.128L403.953 640.632L304.731 732.755L109.128 545.67L0 647.731L175.759 816.392H236.712L55.2737 647.731L109.128 598.104L303.311 786.641L459.226 642.052L263.623 453.547L317.477 403.953L513.08 591.038L666.156 447.868L471.972 257.944L684.58 52.4341L900.028 257.944L705.844 447.868L860.34 591.038L1054.49 403.953L1108.38 453.547L914.193 642.052L1068.69 786.641L1262.84 598.104L1316.73 647.731L1136.71 816.392H1197.66L1372 647.731L1262.84 545.67Z" fill="#F2F2F2"/>
<path d="M557.033 814.972H606.628L686.005 739.854L766.802 814.972H814.977L686.005 694.487L557.033 814.972Z" fill="#F2F2F2"/>
<path d="M686.003 126.133L548.512 259.364L686.003 392.595L823.493 259.364L686.003 126.133ZM686.003 172.92L775.286 259.364L686.003 345.808L596.719 259.364L686.003 172.92Z" fill="#F2F2F2"/>
<path d="M378.429 814.972H428.023L685.999 574.033L943.943 813.553V814.972H993.57L685.999 527.246L378.429 814.972Z" fill="#F2F2F2"/>
</g>
</svg>