<svg width="160" height="160" viewBox="0 0 160 160" fill="none" xmlns="http://www.w3.org/2000/svg">
<rect width="160" height="160" fill="white"/>
<path d="M137.259 87.9025L118.155 106.383L108.392 97.283L127.499 78.6621L116.758 68.5835L97.6544 87.2044L87.8913 78.2414L106.998 59.4802L90.8187 43.8013L80.3603 34L54.1413 59.4802L73.1087 78.2414L63.4853 87.2044L44.3783 68.5835L33.5008 78.6621L52.7475 97.283L42.9845 106.383L23.7378 87.9025L13 97.9843L30.2941 114.645H36.2916L18.4387 97.9843L23.7378 93.082L42.8448 111.706L58.1863 97.4233L38.9396 78.8024L44.2386 73.9033L63.4853 92.384L78.5474 78.2414L59.4404 59.4802L80.3603 39.1796L101.56 59.4802L82.4526 78.2414L97.6544 92.384L116.758 73.9033L122.06 78.8024L102.953 97.4233L118.155 111.706L137.259 93.082L142.561 97.9843L124.848 114.645H130.846L148 97.9843L137.259 87.9025Z" fill="#BE0F34"/>
<path d="M67.8101 114.505H72.69L80.5004 107.084L88.4506 114.505H93.1908L80.5004 102.603L67.8101 114.505Z" fill="#BE0F34"/>
<path d="M80.5003 46.4596L66.9717 59.6205L80.5003 72.7813L94.0288 59.6205L80.5003 46.4596ZM80.5003 51.0814L89.2854 59.6205L80.5003 68.1596L71.7151 59.6205L80.5003 51.0814Z" fill="#BE0F34"/>
<path d="M50.2358 114.505H55.1158L80.4997 90.7042L105.88 114.364V114.505H110.764L80.4997 86.0825L50.2358 114.505Z" fill="#BE0F34"/>
</svg>
