<svg width="96" height="78" viewBox="0 0 96 78" fill="none" xmlns="http://www.w3.org/2000/svg">
<g clip-path="url(#clip0_258_115)">
<path d="M88.362 38.181L74.777 51.2715L67.8344 44.8256L81.4216 31.6357L73.7836 24.4967L60.1987 37.6865L53.2561 31.3377L66.8433 18.0485L55.3377 6.94262L47.9007 0L29.2561 18.0485L42.7439 31.3377L35.9007 37.6865L22.3135 24.4967L14.5784 31.6357L28.2649 44.8256L21.3223 51.2715L7.63575 38.181L0 45.3223L12.298 57.1236H16.5629L3.86754 45.3223L7.63575 41.8499L21.223 55.042L32.1325 44.9249L18.4459 31.7351L22.2141 28.2649L35.9007 41.3554L46.6115 31.3377L33.0243 18.0485L47.9007 3.66886L62.9757 18.0485L49.3885 31.3377L60.1987 41.3554L73.7836 28.2649L77.5541 31.7351L63.9669 44.9249L74.777 55.042L88.362 41.8499L92.1325 45.3223L79.5364 57.1236H83.8013L96 45.3223L88.362 38.181Z" fill="#BE0F34"/>
<path d="M38.9761 57.0243H42.4463L48.0003 51.7682L53.6538 57.0243H57.0246L48.0003 48.5938L38.9761 57.0243Z" fill="#BE0F34"/>
<path d="M48.0002 8.82559L38.3799 18.1479L48.0002 27.4702L57.6205 18.1479L48.0002 8.82559ZM48.0002 12.0993L54.2474 18.1479L48.0002 24.1964L41.753 18.1479L48.0002 12.0993Z" fill="#BE0F34"/>
<path d="M26.479 57.0243H29.9492L48 40.1656L66.0485 56.9249V57.0243H69.521L48 36.8918L26.479 57.0243Z" fill="#BE0F34"/>
<path d="M3.90593 73.5037H2.46547V77.1567H1.43368V73.5037H0V72.6547H3.90593V73.5037Z" fill="#515766"/>
<path d="M8.04653 76.3214V77.1567H4.56055V72.6525H7.96299V73.4879H5.5946V74.4655H7.68529V75.276H5.5946V76.3191H8.04653V76.3214Z" fill="#515766"/>
<path d="M10.634 75.3437H9.91375V77.159H8.87744V72.6547H9.91375V74.4745H10.6611L11.8441 72.6547H12.9437L11.4694 74.829L12.9866 77.1567H11.8035L10.6317 75.3415L10.634 75.3437Z" fill="#515766"/>
<path d="M14.341 76.9355C13.9708 76.7368 13.6795 76.4591 13.4673 76.1046C13.255 75.7501 13.1489 75.3505 13.1489 74.9057C13.1489 74.461 13.255 74.0591 13.4673 73.7069C13.6795 73.3524 13.9708 73.077 14.341 72.876C14.7113 72.6751 15.129 72.578 15.5918 72.578C15.9824 72.578 16.3346 72.6457 16.6507 72.7834C16.9668 72.9212 17.231 73.1176 17.4454 73.375L16.7771 73.9936C16.4723 73.6414 16.0953 73.4653 15.646 73.4653C15.366 73.4653 15.1177 73.5263 14.8987 73.6482C14.6797 73.7701 14.5104 73.9417 14.3862 74.1607C14.2643 74.3797 14.2033 74.628 14.2033 74.908C14.2033 75.188 14.2643 75.4363 14.3862 75.6553C14.5081 75.8743 14.6797 76.0436 14.8987 76.1678C15.1177 76.2897 15.366 76.3507 15.646 76.3507C16.0953 76.3507 16.4746 76.1723 16.7771 75.8179L17.4454 76.4365C17.231 76.6984 16.9645 76.8971 16.6485 77.0348C16.3301 77.1725 15.9779 77.2403 15.5873 77.2403C15.129 77.2403 14.7136 77.1409 14.3433 76.9422L14.341 76.9355Z" fill="#515766"/>
<path d="M21.5257 73.5037H20.0853V77.1567H19.0557V73.5037H17.6221V72.6547H21.5257V73.5037Z" fill="#515766"/>
<path d="M22.1802 72.6547H23.2165V75.5876L25.3659 72.6547H26.3435V77.159H25.3139V74.2329L23.1646 77.159H22.1802V72.6547Z" fill="#515766"/>
<path d="M31.4439 72.6547V77.159H30.4143V73.5059H28.87L28.8384 74.4451C28.8158 75.0841 28.7662 75.6011 28.6849 75.9985C28.6036 76.3958 28.4681 76.7007 28.2762 76.9129C28.0843 77.1251 27.8179 77.2312 27.4747 77.2312C27.3325 77.2312 27.1609 77.2086 26.96 77.1612L27.0254 76.2807C27.0819 76.2988 27.1428 76.3055 27.2128 76.3055C27.4612 76.3055 27.635 76.1588 27.7344 75.8653C27.8337 75.5718 27.8947 75.1112 27.9218 74.4858L27.985 72.6593H31.4461L31.4439 72.6547Z" fill="#515766"/>
<path d="M36.0158 74.5016C36.3093 74.7454 36.4561 75.1089 36.4561 75.5898C36.4561 76.1001 36.2935 76.4884 35.9707 76.7571C35.6478 77.0258 35.1918 77.159 34.6047 77.159H32.5728V72.6547H33.6091V74.1336H34.7537C35.3024 74.1336 35.7246 74.2555 36.0181 74.4993L36.0158 74.5016ZM35.1805 76.1881C35.3317 76.0549 35.4085 75.863 35.4085 75.6102C35.4085 75.1428 35.1218 74.908 34.546 74.908H33.6068V76.3868H34.546C34.817 76.3868 35.0269 76.3213 35.1805 76.1881Z" fill="#515766"/>
<path d="M41.3397 72.6547V77.159H40.2966V75.3121H38.2511V77.159H37.208V72.6547H38.2511V74.4293H40.2966V72.6547H41.3397Z" fill="#515766"/>
<path d="M45.9094 74.5016C46.2029 74.7454 46.3497 75.1089 46.3497 75.5898C46.3497 76.1001 46.1871 76.4884 45.8642 76.7571C45.5414 77.0258 45.0853 77.159 44.4983 77.159H42.4663V72.6547H43.5026V74.1336H44.6473C45.1959 74.1336 45.6181 74.2555 45.9117 74.4993L45.9094 74.5016ZM45.074 76.1881C45.2253 76.0549 45.3021 75.863 45.3021 75.6102C45.3021 75.1428 45.0153 74.908 44.4396 74.908H43.5004V76.3868H44.4396C44.7105 76.3868 44.9205 76.3213 45.074 76.1881ZM46.9231 72.657H47.9594V77.1612H46.9231V72.657Z" fill="#515766"/>
<path d="M49.0767 72.6547H50.113V75.5876L52.2624 72.6547H53.24V77.159H52.2104V74.2329L50.061 77.159H49.0767V72.6547ZM49.9075 71.3814H50.621C50.63 71.6952 50.8084 71.851 51.1538 71.851C51.3254 71.851 51.4563 71.8103 51.5467 71.7313C51.637 71.6523 51.6844 71.5349 51.6889 71.3814H52.4023C52.3978 71.702 52.294 71.9481 52.0863 72.1151C51.8785 72.2822 51.5692 72.3657 51.1538 72.3657C50.3297 72.3657 49.9143 72.0384 49.9053 71.3814H49.9075Z" fill="#515766"/>
<path d="M57.923 75.3437H57.2028V77.159H56.1665V72.6547H57.2028V74.4745H57.9501L59.1332 72.6547H60.2327L58.7584 74.829L60.2756 77.1567H59.0926L57.9208 75.3415L57.923 75.3437Z" fill="#515766"/>
<path d="M61.63 76.9332C61.2552 76.7323 60.9617 76.4546 60.7495 76.1001C60.5373 75.7456 60.4312 75.3483 60.4312 74.9057C60.4312 74.4632 60.5373 74.0659 60.7495 73.7114C60.9617 73.3569 61.2552 73.0792 61.63 72.8783C62.0048 72.6773 62.427 72.5757 62.8944 72.5757C63.3617 72.5757 63.7817 72.6773 64.1542 72.8783C64.5267 73.0792 64.8202 73.3569 65.0347 73.7114C65.2492 74.0659 65.3553 74.4632 65.3553 74.9057C65.3553 75.3483 65.247 75.7456 65.0347 76.1001C64.8202 76.4546 64.5267 76.7323 64.1542 76.9332C63.7817 77.1341 63.3617 77.2357 62.8944 77.2357C62.427 77.2357 62.0048 77.1341 61.63 76.9332ZM63.6146 76.1633C63.8291 76.0414 63.9984 75.8698 64.1203 75.6508C64.2423 75.4318 64.3032 75.1834 64.3032 74.9035C64.3032 74.6258 64.2423 74.3752 64.1203 74.1562C63.9984 73.9372 63.8291 73.7678 63.6146 73.6436C63.4001 73.5217 63.1608 73.4608 62.8944 73.4608C62.628 73.4608 62.3886 73.5217 62.1741 73.6436C61.9597 73.7656 61.7903 73.9372 61.6684 74.1562C61.5465 74.3752 61.4855 74.6235 61.4855 74.9035C61.4855 75.1834 61.5465 75.4318 61.6684 75.6508C61.7903 75.8698 61.9597 76.0391 62.1741 76.1633C62.3886 76.2852 62.628 76.3462 62.8944 76.3462C63.1608 76.3462 63.4001 76.2852 63.6146 76.1633Z" fill="#515766"/>
<path d="M70.2614 77.159L70.2546 74.4632L68.9293 76.6826H68.4665L67.1412 74.5151V77.159H66.1636V72.6547H67.026L68.7126 75.4521L70.372 72.6547H71.2345L71.2413 77.159H70.2637H70.2614Z" fill="#515766"/>
<path d="M72.3592 72.6547H75.9942V73.4856H73.3955V74.4113H74.644C75.1882 74.4113 75.6036 74.5242 75.8881 74.7522C76.1725 74.9802 76.3148 75.3076 76.3148 75.7366C76.3148 76.1859 76.1567 76.5358 75.8384 76.7842C75.5201 77.0325 75.073 77.1567 74.4928 77.1567H72.3569V72.6525L72.3592 72.6547ZM74.4363 76.3868C74.7027 76.3868 74.9059 76.3349 75.0482 76.2288C75.1904 76.1227 75.2604 75.9714 75.2604 75.7682C75.2604 75.3731 74.985 75.1767 74.4363 75.1767H73.3932V76.3868H74.4363Z" fill="#515766"/>
<path d="M77.1045 72.6547H78.1408V75.5876L80.2902 72.6547H81.2678V77.159H80.2383V74.2329L78.0889 77.159H77.1045V72.6547Z" fill="#515766"/>
<path d="M86.517 72.6547V77.159H85.4739V75.3121H83.4283V77.159H82.3853V72.6547H83.4283V74.4293H85.4739V72.6547H86.517Z" fill="#515766"/>
<path d="M90.692 76.1927H88.6013L88.2017 77.1567H87.1338L89.1409 72.6525H90.1705L92.1844 77.1567H91.0916L90.692 76.1927ZM90.3646 75.4024L89.6512 73.6775L88.9377 75.4024H90.3669H90.3646Z" fill="#515766"/>
<path d="M95.9999 73.5037H94.5594V77.1567H93.5299V73.5037H92.0962V72.6547H95.9999V73.5037Z" fill="#515766"/>
<path d="M6.75071 65.7189C7.01261 66.0508 7.14356 66.4595 7.14356 66.9471C7.14356 67.6651 6.87037 68.225 6.32625 68.6269C5.78213 69.0288 5.0032 69.2297 3.99398 69.2297H0V61.1244H3.77498C4.71646 61.1244 5.45024 61.305 5.97404 61.6685C6.50009 62.032 6.76199 62.549 6.76199 63.2196C6.76199 63.6215 6.6604 63.9737 6.46171 64.2785C6.26077 64.5833 5.97855 64.8248 5.61731 65.0032C6.11176 65.15 6.48881 65.3893 6.75296 65.7212L6.75071 65.7189ZM1.86491 64.4794H3.61468C4.02333 64.4794 4.33264 64.3959 4.54036 64.231C4.74807 64.0662 4.85193 63.8201 4.85193 63.495C4.85193 63.1699 4.74581 62.9351 4.53358 62.7658C4.32135 62.5964 4.0143 62.5106 3.61242 62.5106H1.86265V64.4794H1.86491ZM5.24704 66.7959C5.24704 66.1253 4.80677 65.7889 3.92625 65.7889H1.86491V67.839H3.92625C4.80677 67.839 5.24704 67.4913 5.24704 66.7959Z" fill="#515766"/>
<path d="M10.2188 68.8211C9.54371 68.4576 9.0154 67.9586 8.63158 67.3219C8.25002 66.6852 8.05811 65.9695 8.05811 65.1748C8.05811 64.3801 8.25002 63.6643 8.63158 63.0277C9.01314 62.391 9.54145 61.892 10.2188 61.5285C10.8939 61.165 11.6525 60.9844 12.4946 60.9844C13.3368 60.9844 14.0931 61.165 14.7637 61.5285C15.4342 61.892 15.9648 62.391 16.3509 63.0277C16.7369 63.6643 16.9288 64.3801 16.9288 65.1748C16.9288 65.9695 16.7369 66.6852 16.3509 67.3219C15.9648 67.9586 15.4365 68.4598 14.7637 68.8211C14.0908 69.1846 13.3345 69.3652 12.4946 69.3652C11.6525 69.3652 10.8939 69.1846 10.2188 68.8211ZM13.7906 67.4371C14.1766 67.2181 14.4792 66.911 14.7004 66.5159C14.9194 66.123 15.0301 65.6737 15.0301 65.1725C15.0301 64.6713 14.9194 64.222 14.7004 63.8292C14.4792 63.4363 14.1766 63.1293 13.7906 62.908C13.4045 62.689 12.971 62.5784 12.4946 62.5784C12.0182 62.5784 11.5847 62.689 11.1987 62.908C10.8126 63.127 10.51 63.434 10.2888 63.8292C10.0698 64.222 9.95914 64.6713 9.95914 65.1725C9.95914 65.6737 10.0698 66.123 10.2888 66.5159C10.51 66.9087 10.8126 67.2158 11.1987 67.4371C11.5847 67.6561 12.0182 67.7667 12.4946 67.7667C12.971 67.7667 13.4045 67.6561 13.7906 67.4371Z" fill="#515766"/>
<path d="M25.3731 61.1198V69.2252H23.5194V62.6484H20.7401L20.6814 64.3394C20.6431 65.4909 20.5505 66.4211 20.4037 67.1368C20.257 67.8502 20.0109 68.3989 19.6677 68.7804C19.3245 69.162 18.8436 69.3539 18.225 69.3539C17.9699 69.3539 17.6606 69.311 17.2993 69.2275L17.4145 67.6403C17.5138 67.6719 17.6267 67.6877 17.7509 67.6877C18.1979 67.6877 18.5117 67.4235 18.6878 66.8952C18.8662 66.3669 18.9768 65.5383 19.0242 64.4117L19.1394 61.1221H25.3686L25.3731 61.1198Z" fill="#515766"/>
<path d="M28.9917 68.8211C28.3167 68.4576 27.7883 67.9586 27.4045 67.3219C27.023 66.6852 26.8311 65.9695 26.8311 65.1748C26.8311 64.3801 27.023 63.6643 27.4045 63.0277C27.7861 62.391 28.3144 61.892 28.9917 61.5285C29.6668 61.165 30.4254 60.9844 31.2676 60.9844C32.1097 60.9844 32.866 61.165 33.5366 61.5285C34.2072 61.892 34.7377 62.391 35.1238 63.0277C35.5099 63.6643 35.7018 64.3801 35.7018 65.1748C35.7018 65.9695 35.5076 66.6852 35.1238 67.3219C34.7377 67.9586 34.2094 68.4598 33.5366 68.8211C32.8638 69.1846 32.1074 69.3652 31.2676 69.3652C30.4277 69.3652 29.6668 69.1846 28.9917 68.8211ZM32.5635 67.4371C32.9496 67.2181 33.2521 66.911 33.4734 66.5159C33.6924 66.123 33.803 65.6737 33.803 65.1725C33.803 64.6713 33.6924 64.222 33.4734 63.8292C33.2544 63.4363 32.9496 63.1293 32.5635 62.908C32.1774 62.689 31.7439 62.5784 31.2676 62.5784C30.7889 62.5784 30.3577 62.689 29.9716 62.908C29.5855 63.127 29.283 63.434 29.0617 63.8292C28.8427 64.222 28.7321 64.6713 28.7321 65.1725C28.7321 65.6737 28.8427 66.123 29.0617 66.5159C29.2807 66.9087 29.5855 67.2158 29.9716 67.4371C30.3577 67.6561 30.7889 67.7667 31.2676 67.7667C31.7462 67.7667 32.1774 67.6561 32.5635 67.4371Z" fill="#515766"/>
<path d="M42.8588 62.6484H39.0025L39.0138 69.2252H37.1489V61.1198H42.8701L42.8588 62.6484Z" fill="#515766"/>
<path d="M44.7852 68.8211C44.1101 68.4576 43.5818 67.9586 43.198 67.3219C42.8164 66.6852 42.6245 65.9695 42.6245 65.1748C42.6245 64.3801 42.8164 63.6643 43.198 63.0277C43.5795 62.391 44.1079 61.892 44.7852 61.5285C45.4603 61.165 46.2189 60.9844 47.061 60.9844C47.9032 60.9844 48.6595 61.165 49.3301 61.5285C50.0006 61.892 50.5312 62.391 50.9173 63.0277C51.3033 63.6643 51.4953 64.3801 51.4953 65.1748C51.4953 65.9695 51.3011 66.6852 50.9173 67.3219C50.5312 67.9586 50.0029 68.4598 49.3301 68.8211C48.6573 69.1846 47.9009 69.3652 47.061 69.3652C46.2189 69.3652 45.4603 69.1846 44.7852 68.8211ZM48.357 67.4371C48.743 67.2181 49.0456 66.911 49.2668 66.5159C49.4859 66.123 49.5965 65.6737 49.5965 65.1725C49.5965 64.6713 49.4859 64.222 49.2668 63.8292C49.0478 63.4363 48.743 63.1293 48.357 62.908C47.9709 62.689 47.5374 62.5784 47.061 62.5784C46.5824 62.5784 46.1511 62.689 45.7651 62.908C45.379 63.127 45.0764 63.434 44.8552 63.8292C44.6362 64.222 44.5255 64.6713 44.5255 65.1725C44.5255 65.6737 44.6362 66.123 44.8552 66.5159C45.0742 66.9087 45.379 67.2158 45.7651 67.4371C46.1511 67.6561 46.5824 67.7667 47.061 67.7667C47.5397 67.7667 47.9709 67.6561 48.357 67.4371Z" fill="#515766"/>
<path d="M61.075 67.699V70.625H59.3387V69.2275H53.6176V70.625H51.8813L51.8926 67.699H52.2178C52.7032 67.6832 53.0486 67.3287 53.2496 66.6333C53.4505 65.9379 53.5747 64.9468 53.6198 63.6576L53.7124 61.1221H59.9416V67.699H61.0772H61.075ZM55.0309 66.2562C54.9067 66.9087 54.7171 67.3896 54.4642 67.699H58.0879V62.6506H55.3086L55.2748 63.8314C55.2364 64.7955 55.1551 65.606 55.0309 66.2585V66.2562Z" fill="#515766"/>
<path d="M63.9284 68.8279C63.2601 68.4689 62.7363 67.9699 62.3547 67.3332C61.9732 66.6965 61.7812 65.9763 61.7812 65.1725C61.7812 64.3688 61.9732 63.6508 62.3547 63.0119C62.7363 62.3752 63.2623 61.8762 63.9284 61.5172C64.5967 61.1582 65.3463 60.9776 66.1816 60.9776C66.8838 60.9776 67.5182 61.1018 68.0872 61.3479C68.6539 61.594 69.1303 61.9507 69.5163 62.4136L68.313 63.5244C67.7643 62.8922 67.0847 62.5739 66.2742 62.5739C65.773 62.5739 65.3237 62.6845 64.9308 62.9035C64.538 63.1225 64.2309 63.4295 64.0097 63.8247C63.7907 64.2175 63.68 64.6668 63.68 65.168C63.68 65.6692 63.7907 66.1185 64.0097 66.5114C64.2287 66.9042 64.5357 67.2113 64.9308 67.4326C65.3237 67.6516 65.773 67.7622 66.2742 67.7622C67.0847 67.7622 67.7643 67.4416 68.313 66.8004L69.5163 67.9112C69.1303 68.3831 68.6516 68.7421 68.0804 68.9882C67.5092 69.2343 66.8725 69.3584 66.1703 69.3584C65.344 69.3584 64.5967 69.1778 63.9284 68.8188V68.8279Z" fill="#515766"/>
<path d="M73.8806 65.9605H72.5846V69.2252H70.7197V61.1198H72.5846V64.3981H73.928L76.0593 61.1198H78.0394L75.3865 65.0348L78.1184 69.2275H75.9871L73.8806 65.9627V65.9605Z" fill="#515766"/>
<path d="M78.999 61.1198H80.8639V66.4007L84.7315 61.1198H86.4925V69.2252H84.6389V63.9556L80.7714 69.2252H78.999V61.1198Z" fill="#515766"/>
<path d="M88.5063 61.1198H90.3713V66.4007L94.2388 61.1198H95.9999V69.2252H94.1462V63.9556L90.2787 69.2252H88.5063V61.1198ZM90.001 58.826H91.2857C91.3015 59.3904 91.6221 59.6704 92.2475 59.6704C92.5568 59.6704 92.7916 59.5981 92.9541 59.4559C93.1167 59.3136 93.2002 59.1037 93.2093 58.8237H94.4939C94.4872 59.4017 94.2975 59.842 93.9272 60.1445C93.557 60.4448 92.997 60.596 92.2475 60.596C90.7641 60.596 90.0168 60.0045 90.001 58.8237V58.826Z" fill="#515766"/>
</g>
<defs>
<clipPath id="clip0_258_115">
<rect width="96" height="77.2357" fill="white"/>
</clipPath>
</defs>
</svg>
